<svg id="Layer_1" data-name="Layer 1" xmlns="http://www.w3.org/2000/svg" viewBox="0 0 70.88 84.28"><defs><style>.cls-1{fill:#dbdbdb;}.cls-2{fill:#56bad1;}</style></defs><title>export</title><path class="cls-1" d="M14.17,92.28C14.17,78.72,25,61.71,49.3,61.71c24.93,0,35.75,17,35.75,30.57" transform="translate(-14.17 -8)"/><circle class="cls-1" cx="35.44" cy="25.41" r="24.56"/><path class="cls-2" d="M72.89,38.3v2.48A24.66,24.66,0,1,0,25,32.66a24.55,24.55,0,0,0,1.38,8.12V35.92h1.72V34.37a.91.91,0,0,1-.69-.87.9.9,0,0,1,1.79,0,.91.91,0,0,1-.69.87v1.55h1.61V31.75a1.14,1.14,0,1,1,.41,0v4.17H32V32.2H33.4V31.13a2.17,2.17,0,0,1-.19-.9,2.26,2.26,0,1,1,4.52,0,2.17,2.17,0,0,1-.19.9V32.2H39V33l1.29-.46v-2.7h1.82V28.13h2.79v1.68H46v-2.3H48v-.94a.63.63,0,1,1,.41,0v.94h1.77v7.43h2.67V29.55H54V28.08h1.36v-.86h.41v.86h1.36v1.47h1.13v5.39h2V32.2h1.42V31.13a2.34,2.34,0,0,1-.19-.9,2.26,2.26,0,1,1,4.52,0,2.17,2.17,0,0,1-.19.9V32.2h1.43v3.72h1.49V31.75a1.13,1.13,0,1,1,.41,0v4.17h1.61V34.37a.91.91,0,0,1-.69-.87.9.9,0,1,1,1.1.87v1.55h1.73V38.3Z" transform="translate(-14.17 -8)"/></svg>