<?xml version="1.0" encoding="utf-8"?>
<!-- Generator: Adobe Illustrator 22.0.0, SVG Export Plug-In . SVG Version: 6.00 Build 0)  -->
<svg version="1.1" xmlns="http://www.w3.org/2000/svg" xmlns:xlink="http://www.w3.org/1999/xlink" x="0px" y="0px"
	 viewBox="0 0 100 100" style="enable-background:new 0 0 100 100;" xml:space="preserve">
<style type="text/css">
	.st0{fill:#FFFFFF;}
	.st1{fill:#DBDBDB;}
	.st2{fill:#56BAD1;}
</style>
<g id="Layer_1">
</g>
<g id="Layer_2">
	<g>
		<g>
			<rect x="7.4" y="7.5" class="st0" width="84.5" height="84.5"/>
		</g>
		<g>
			<circle class="st1" cx="49.6" cy="49.8" r="42"/>
			<circle class="st0" cx="49.6" cy="49.8" r="31.7"/>
			<path class="st2" d="M79.4,56.3v3.2c5.7-16.5-2.9-34.4-19.4-40.2s-34.4,2.9-40.2,19.4c-2.4,6.7-2.4,14.1,0,20.8v-6.3h2.2v-2
				c-0.5-0.1-0.9-0.6-0.9-1.1c0-0.6,0.5-1.2,1.1-1.2c0.6,0,1.2,0.5,1.2,1.1c0,0.5-0.4,1-0.9,1.1v2h2.1v-5.3
				c-0.7-0.1-1.2-0.7-1.2-1.4c0-0.8,0.6-1.4,1.4-1.4c0.8,0,1.5,0.6,1.5,1.4c0,0.7-0.5,1.4-1.2,1.5v5.3h1.9v-4.8h1.8v-1.4
				c-0.6-1.4,0-3.1,1.5-3.8c0.4-0.2,0.8-0.3,1.2-0.2c1.6,0,2.9,1.3,2.9,2.9c0,0.4-0.1,0.8-0.2,1.2v1.4h1.8v1l1.7-0.6v-3.5h2.3v-2.1
				h3.5v2.2h1.4v-3h2.6v-1.2c-0.4-0.1-0.7-0.6-0.5-1c0.1-0.3,0.4-0.6,0.8-0.6c0.4,0,0.8,0.4,0.8,0.8c0,0.3-0.2,0.6-0.5,0.8v1.2h2.3
				V52h3.4v-6.9h1.4v-1.9h1.8v-1.1h0.5v1.1h1.8v1.9h1.5V52h2.5v-3.5H65v-1.3c-0.6-1.5,0.1-3.2,1.5-3.8c1.5-0.6,3.2,0.1,3.8,1.5
				c0.1,0.4,0.2,0.7,0.2,1.1c0,0.4-0.1,0.8-0.2,1.2v1.4H72v4.8h2.1v-5.3c-0.8-0.1-1.3-0.9-1.2-1.7c0.1-0.8,0.9-1.3,1.7-1.2
				c0.8,0.1,1.3,0.9,1.2,1.7c-0.1,0.6-0.6,1.1-1.2,1.2v5.3h2.1v-2c-0.5-0.1-0.9-0.6-0.9-1.1c0-0.6,0.5-1.1,1.1-1.1c0,0,0,0,0,0
				c0.6,0,1.1,0.5,1.2,1.1c0,0,0,0,0,0c0,0.5-0.4,1-0.9,1.1v2h2.2V56.3z"/>
		</g>
	</g>
</g>
</svg>
