<svg id="Layer_1" data-name="Layer 1" xmlns="http://www.w3.org/2000/svg" viewBox="0 0 95.3 71.15"><defs><style>.cls-1{fill:#dbdbdb;}.cls-2{fill:#56bad1;}</style></defs><title>logo</title><rect class="cls-1" x="35.03" y="33.98" width="25.98" height="3.39"/><path class="cls-1" d="M34.42,9.92a9.24,9.24,0,0,0-11.15,4.95L9.15,44.72a21,21,0,0,1,29,8L41,19.79A9.49,9.49,0,0,0,34.42,9.92Zm-4,7-9.4,22a1.68,1.68,0,0,1-1.55,1,1.61,1.61,0,0,1-.67-.14A1.69,1.69,0,0,1,18,37.59l9.4-22a1.69,1.69,0,1,1,3.11,1.33Z" transform="translate(-2 -9.5)"/><path class="cls-1" d="M93,51.66a17.7,17.7,0,1,0-2.31,24.91A17.71,17.71,0,0,0,93,51.66ZM69.25,72.78a1.7,1.7,0,0,1,2.61-2.17,10,10,0,0,0,14.07,1.3,1.69,1.69,0,1,1,2.16,2.6A13.39,13.39,0,0,1,69.25,72.78Z" transform="translate(-2 -9.5)"/><path class="cls-1" d="M33.3,51.66A17.7,17.7,0,1,0,31,76.57,17.7,17.7,0,0,0,33.3,51.66ZM9.57,72.78a1.7,1.7,0,0,1,2.61-2.17,10,10,0,0,0,14.07,1.3,1.69,1.69,0,1,1,2.17,2.6A13.4,13.4,0,0,1,9.57,72.78Z" transform="translate(-2 -9.5)"/><path class="cls-1" d="M67.4,9.5a9.38,9.38,0,0,0-9.33,10.29L61,52.73a21,21,0,0,1,29-8L75.78,14.87A9.25,9.25,0,0,0,67.4,9.5Z" transform="translate(-2 -9.5)"/><path class="cls-2" d="M96.3,66.18V68a17.81,17.81,0,1,0-33.63,0V64.46h1.24V63.34a.65.65,0,0,1-.49-.63.65.65,0,1,1,.79.63v1.12h1.16v-3a.82.82,0,0,1-.66-.8.81.81,0,0,1,.81-.81.81.81,0,0,1,.15,1.61v3h1.08V61.77h1V61a1.62,1.62,0,0,1,1.5-2.28,1.63,1.63,0,0,1,1.63,1.63,1.65,1.65,0,0,1-.14.65v.77h1v.55l.94-.32v-2h1.31V58.83h2v1.22h.79V58.38h1.49V57.7a.45.45,0,0,1,.15-.88.45.45,0,0,1,.45.45.46.46,0,0,1-.3.43v.68h1.28v5.37h1.92V59.86h.81V58.79h1v-.62h.3v.62h1v1.07h.82v3.89h1.43v-2h1V61a1.63,1.63,0,1,1,3.13-.65,1.84,1.84,0,0,1-.13.65v.77h1v2.69H93.3v-3a.82.82,0,1,1,.3,0v3h1.16V63.34a.65.65,0,0,1-.49-.63.63.63,0,0,1,.64-.64.64.64,0,0,1,.65.64.65.65,0,0,1-.5.63v1.12H96.3v1.72Z" transform="translate(-2 -9.5)"/><path class="cls-2" d="M3.36,69.49h.28v-.4H3.36v-.67h.28v-.48H3.36v-.67h.28v-.41H3.36v-.67h.28v-1h.51v-.9H5V61.52H8.66v2.12l1.85,3.77h.54v.46h4.21V66.48H14.8V65.6H17V63.71h-.55V62.8h1.35v-.88h-.54v-.85l2.15-1.24,2.16,1.24v.85h-.51v.88H22.4v.91h-.55v1.9h1.48v-.88h.28V63.55h.68v-.76h.22v.76h.68v1.18h.29V71h.11V64.73h.29V63.55h.67v-.76h.23v.76h.67v1.18h.29V71h.11V64.76h.29V63.58h.68v-.77H29v.77h.68v1.18H30v1.88h.55v-1l1.35-1.43,1.35,1.43v1h.54V64.73h.85v-.47h.19v.47h.86v5.64a17.69,17.69,0,1,0-32.34-.72Z" transform="translate(-2 -9.5)"/></svg>