<svg id="Layer_1" data-name="Layer 1" xmlns="http://www.w3.org/2000/svg" viewBox="0 0 69.5 89.94"><defs><style>.cls-1{fill:#dbdbdb;}.cls-2{fill:#fff;}.cls-3{fill:#56bad1;}</style></defs><title>pin</title><path class="cls-1" d="M85,39.28c0,19.19-20.44,38.84-34.75,55.19C35.94,78.12,15.5,58.47,15.5,39.28a34.75,34.75,0,0,1,69.5,0Z" transform="translate(-15.5 -4.53)"/><circle class="cls-2" cx="34.75" cy="34.75" r="20.44"/><path class="cls-3" d="M69.63,43.35v2.06a20.52,20.52,0,1,0-38.76,0v-4H32.3V40.07a.74.74,0,1,1,.92-.72.73.73,0,0,1-.57.72v1.29H34V37.89a.94.94,0,1,1,.34,0v3.47h1.24V38.27h1.19v-.89a1.78,1.78,0,0,1-.16-.75,1.88,1.88,0,1,1,3.76,0,1.93,1.93,0,0,1-.15.75v.89h1.18v.64l1.08-.38V36.28H44v-1.4h2.33v1.4h.91V34.37h1.72v-.79a.52.52,0,0,1-.36-.49.53.53,0,0,1,.53-.53.53.53,0,0,1,.17,1v.79h1.47v6.18H53V36.07h.94V34.84H55v-.72h.34v.72h1.13v1.23h.94v4.48h1.66V38.27h1.18v-.89a1.94,1.94,0,0,1-.16-.75,1.89,1.89,0,0,1,3.77,0,1.94,1.94,0,0,1-.16.75v.89h1.19v3.09h1.24V37.89a.94.94,0,1,1,.34,0v3.47h1.34V40.07a.73.73,0,0,1-.57-.72.74.74,0,1,1,1.48,0,.73.73,0,0,1-.57.72v1.29h1.44v2Z" transform="translate(-15.5 -4.53)"/></svg>