<svg xmlns="http://www.w3.org/2000/svg" xmlns:xlink="http://www.w3.org/1999/xlink" version="1.1" baseProfile="tiny" x="0px" y="0px" viewBox="-7.5 16.5 24 30" xml:space="preserve"><path d="M15.5,32.5c0-1.1-0.5-2.1-1.2-2.8l-1.4-5.4c-0.3-1.5-1.8-2.7-3.4-2.7h-3v-1c0-1.1-0.9-2-2-2s-2,0.9-2,2v1h-3  c-1.6,0-3.1,1.2-3.4,2.7l-1.4,5.5c-0.7,0.7-1.2,1.7-1.2,2.8v4h2v2c0,1.1,0.9,2,2,2s2-0.9,2-2v-2h10v2c0,1.1,0.9,2,2,2s2-0.9,2-2v-2  h2V32.5z M-2,24.7c0.1-0.6,0.8-1.2,1.5-1.2h10c0.6,0,1.3,0.6,1.5,1.2l1,3.8H-3L-2,24.7z M-2.5,34.5c-1.1,0-2-0.9-2-2s0.9-2,2-2  s2,0.9,2,2S-1.4,34.5-2.5,34.5z M11.5,34.5c-1.1,0-2-0.9-2-2s0.9-2,2-2s2,0.9,2,2S12.6,34.5,11.5,34.5z"/><text x="-7.5" y="55.5" fill="#000000" font-size="5px" font-weight="bold" font-family="'Helvetica Neue', Helvetica, Arial-Unicode, Arial, Sans-serif">Created by Rflor</text><text x="-7.5" y="60.5" fill="#000000" font-size="5px" font-weight="bold" font-family="'Helvetica Neue', Helvetica, Arial-Unicode, Arial, Sans-serif">from the Noun Project</text></svg>