<svg id="Layer_1" data-name="Layer 1" xmlns="http://www.w3.org/2000/svg" viewBox="0 0 86.91 97"><defs><style>.cls-1{fill:#fff;}.cls-2{fill:#56bad1;}.cls-3{fill:#ef4b4c;}.cls-4{fill:#dbdbdb;}</style></defs><title>police_car</title><path class="cls-1" d="M83.26,62.65a8.28,8.28,0,0,0-11.78-1.12,8.6,8.6,0,0,0-1.1,12,8.27,8.27,0,0,0,11.78,1.12h0A8.61,8.61,0,0,0,83.26,62.65Z" transform="translate(-6.9 -1)"/><path class="cls-2" d="M85.07,69.61v.88a8.55,8.55,0,0,0-16.14-5.64,8.65,8.65,0,0,0,0,5.64v-1.7h.6v-.54a.31.31,0,0,1,.07-.62.31.31,0,0,1,.07.62v.54h.56V67.35a.41.41,0,0,1-.32-.39.39.39,0,0,1,.39-.38.38.38,0,0,1,.4.37.38.38,0,0,1-.33.4v1.44h.52V67.5h.48v-.37a.79.79,0,0,1,.39-1,1,1,0,0,1,.33-.07.78.78,0,0,1,.78.79.85.85,0,0,1-.06.31v.37h.47v.26l.46-.15v-1h.62v-.56h1v.58h.38v-.8h.72v-.33a.21.21,0,0,1-.15-.27.23.23,0,0,1,.22-.15.22.22,0,0,1,.22.22.21.21,0,0,1-.15.2v.33h.62v2.58h.92V66.58h.39v-.51H79v-.3h.15v.3h.48v.51H80v1.87h.69v-1h.48v-.36a.78.78,0,1,1,1.44-.61.73.73,0,0,1,.06.3.85.85,0,0,1-.06.31v.37h.48v1.29h.56V67.35a.4.4,0,0,1-.32-.46.4.4,0,0,1,.46-.32.4.4,0,0,1,.32.46.41.41,0,0,1-.32.32v1.44h.56v-.54a.32.32,0,0,1-.24-.3.3.3,0,0,1,.3-.31h0a.3.3,0,0,1,.31.3h0a.31.31,0,0,1-.24.3v.54h.6Z" transform="translate(-6.9 -1)"/><path class="cls-1" d="M30.46,60.88a8.73,8.73,0,1,0-1.15,12.3h0A8.74,8.74,0,0,0,30.46,60.88Z" transform="translate(-6.9 -1)"/><path class="cls-2" d="M15.69,69.68h.13v-.2h-.13v-.33h.13v-.23h-.13v-.33h.13v-.21h-.13v-.33h.13v-.49h.26v-.44h.41V65.75H18.3v1l.91,1.86h.27v.22h2.08V68.2h-.23v-.44h1.09v-.93h-.28v-.45h.67V66h-.27v-.42l1.06-.61,1.07.61V66h-.25v.43h.66v.45h-.27v.94h.73v-.44h.14v-.58H26v-.37h.11v.37h.34v.58h.14v3.1h0v-3.1h.15v-.58h.33v-.37h.11v.37h.33v.58h.14v3.1h.06V67.35h.14v-.58h.34v-.38h.09v.38h.33v.58h.16v.93h.27v-.5l.67-.7.66.7v.5h.27v-1h.42V67.1h.09v.23h.43v2.79a8.73,8.73,0,1,0-16-.36Z" transform="translate(-6.9 -1)"/><rect class="cls-3" x="39.79" y="2.83" width="3.66" height="9.76" transform="translate(-5.17 20.84) rotate(-30)"/><rect class="cls-3" x="42.05" width="3.66" height="9.76"/><rect class="cls-3" x="58.09" y="2.83" width="3.66" height="9.76" transform="translate(4.99 -29.93) rotate(30)"/><path class="cls-4" d="M92.87,67a15.37,15.37,0,0,0-4.59-10.71L82.92,35.62c-1.15-5.74-6.89-10.33-13-10.33H58.43V21.46a7.66,7.66,0,0,0-15.31,0v3.83H31.64c-6.12,0-11.86,4.59-13,10.33L13.27,56.67A15.35,15.35,0,0,0,8.68,67.39v15.3h7.65v7.66a7.66,7.66,0,0,0,15.31,0V82.69H69.91v7.66a7.65,7.65,0,1,0,15.3,0V82.69h7.66Zm-67-29.85a6.18,6.18,0,0,1,5.74-4.59H69.91c2.29,0,5,2.3,5.74,4.59L79.47,51.7H22.07ZM24,74.66A7.66,7.66,0,1,1,31.64,67,7.69,7.69,0,0,1,24,74.66Zm53.57,0A7.66,7.66,0,1,1,85.21,67,7.68,7.68,0,0,1,77.56,74.66Z" transform="translate(-6.9 -1)"/><rect class="cls-4" x="7.61" y="48.9" width="8.88" height="6.66" rx="1" ry="1" transform="translate(25.76 1.75) rotate(35.6)"/><rect class="cls-4" x="84.48" y="48.9" width="8.88" height="6.66" rx="1" ry="1" transform="translate(176.25 9.35) rotate(125.6)"/></svg>