<svg id="Layer_1" data-name="Layer 1" xmlns="http://www.w3.org/2000/svg" viewBox="0 0 69.5 89.94"><defs><style>.cls-1{fill:#ef4b4c;}.cls-2{fill:#fff;}.cls-3{fill:#dbdbdb;}</style></defs><title>red_pin</title><path class="cls-1" d="M69.5,34.75c0,19.19-20.44,38.84-34.75,55.19C20.44,73.59,0,53.94,0,34.75a34.75,34.75,0,0,1,69.5,0Z" transform="translate(0 0)"/><circle class="cls-2" cx="34.75" cy="34.75" r="20.44"/><path class="cls-3" d="M54.13,38.82v2.06a20.52,20.52,0,1,0-38.76,0v-4H16.8V35.54a.74.74,0,0,1-.54-.9.74.74,0,0,1,1.46.18.74.74,0,0,1-.57.72v1.29H18.5V33.36a.94.94,0,1,1,1.09-.75.94.94,0,0,1-.75.75v3.47h1.24V33.74h1.19v-.89a1.78,1.78,0,0,1-.16-.75,1.88,1.88,0,0,1,3.76,0h0a1.93,1.93,0,0,1-.15.75v.89H25.9v.64L27,34V31.75H28.5v-1.4h2.33v1.4h.91V29.84h1.72v-.79a.53.53,0,0,1-.36-.49.5.5,0,1,1,1,.06.52.52,0,0,1-.29.41v.79h1.47V36H37.5V31.54h.94V30.31H39.5v-.72h.34v.72H41v1.23h.94V36h1.66V33.74h1.18v-.89a1.94,1.94,0,0,1-.16-.75,1.89,1.89,0,0,1,3.77,0,1.94,1.94,0,0,1-.16.75v.89h1.19v3.09h1.24V33.36a.94.94,0,1,1,1.09-.75.94.94,0,0,1-.75.75v3.47h1.34V35.54a.74.74,0,1,1,.34,0v1.29h1.44v2Z" transform="translate(0 0)"/></svg>